<svg xmlns="http://www.w3.org/2000/svg" xmlns:xlink="http://www.w3.org/1999/xlink" viewBox="0,0,256,256" width="250px" height="250px" fill-rule="nonzero"><g fill="#2c3338" fill-rule="nonzero" stroke="none" stroke-width="1" stroke-linecap="butt" stroke-linejoin="miter" stroke-miterlimit="10" stroke-dasharray="" stroke-dashoffset="0" font-family="none" font-weight="none" font-size="none" text-anchor="none" style="mix-blend-mode: normal"><g transform="scale(5.12,5.12)"><path d="M10,11c-1.657,0 -3,1.343 -3,3v22c0,1.657 1.343,3 3,3h30c1.657,0 3,-1.343 3,-3v-22c0,-1.657 -1.343,-3 -3,-3zM10,12h30c1.105,0 2,0.895 2,2v19.0918l-8.5293,-7.66992c-1.333,-1.198 -3.3575,-1.19614 -4.6875,0.00586l-6.93164,6.26367l-3.31836,-2.83789c-1.314,-1.123 -3.24959,-1.12019 -4.55859,0.00781l-5.97461,5.14648v-20.00781c0,-1.105 0.895,-2 2,-2zM16,17c-1.657,0 -3,1.343 -3,3c0,1.657 1.343,3 3,3c1.657,0 3,-1.343 3,-3c0,-1.657 -1.343,-3 -3,-3z"></path></g></g></svg>